<svg xmlns="http://www.w3.org/2000/svg" xmlns:xlink="http://www.w3.org/1999/xlink" width="1080" zoomAndPan="magnify" viewBox="0 0 810 809.999993" height="1080" preserveAspectRatio="xMidYMid meet" version="1.0"><defs><g/><clipPath id="62309cef38"><path d="M 137.984375 244 L 671.984375 244 L 671.984375 566 L 137.984375 566 Z M 137.984375 244 " clip-rule="nonzero"/></clipPath></defs><g clip-path="url(#62309cef38)"><path fill="#000000" d="M 654.464844 261.769531 L 654.464844 260.882812 C 654.464844 251.71875 647.015625 244.265625 637.855469 244.265625 L 154.59375 244.265625 C 145.4375 244.265625 137.984375 251.71875 137.984375 260.882812 L 137.984375 530.667969 C 137.984375 540.351562 145.824219 548.234375 155.484375 548.3125 C 155.5625 557.976562 163.4375 565.820312 173.117188 565.820312 L 654.3125 565.820312 C 664.042969 565.820312 671.957031 557.902344 671.957031 548.167969 L 671.957031 279.414062 C 671.957031 269.730469 664.121094 261.851562 654.464844 261.769531 Z M 670 548.171875 C 670 556.835938 662.976562 563.859375 654.316406 563.859375 L 173.117188 563.859375 C 164.507812 563.859375 157.523438 556.917969 157.441406 548.320312 L 636.820312 548.320312 C 646.550781 548.320312 654.464844 540.402344 654.464844 530.671875 L 654.464844 263.730469 C 663.054688 263.8125 669.996094 270.796875 669.996094 279.414062 L 669.996094 548.167969 Z M 637.855469 246.222656 C 645.945312 246.222656 652.503906 252.789062 652.503906 260.882812 L 652.503906 289.414062 L 139.945312 289.414062 L 139.945312 260.882812 C 139.945312 252.789062 146.503906 246.222656 154.59375 246.222656 Z M 139.945312 291.375 L 652.507812 291.375 L 652.507812 530.671875 C 652.507812 539.335938 645.488281 546.363281 636.824219 546.363281 L 155.625 546.363281 C 146.964844 546.363281 139.945312 539.335938 139.945312 530.671875 Z M 169.789062 281.296875 C 177.214844 281.296875 183.257812 275.25 183.257812 267.820312 C 183.257812 260.390625 177.214844 254.34375 169.789062 254.34375 C 162.363281 254.34375 156.316406 260.390625 156.316406 267.820312 C 156.316406 275.25 162.363281 281.296875 169.789062 281.296875 Z M 158.277344 267.820312 C 158.277344 261.460938 163.429688 256.304688 169.789062 256.304688 C 176.144531 256.304688 181.296875 261.460938 181.296875 267.820312 C 181.296875 274.179688 176.144531 279.335938 169.789062 279.335938 C 163.429688 279.335938 158.277344 274.179688 158.277344 267.820312 Z M 614.96875 259.925781 C 614.761719 259.71875 614.648438 259.441406 614.648438 259.152344 C 614.648438 258.859375 614.761719 258.582031 614.964844 258.375 C 615.398438 257.949219 616.09375 257.949219 616.519531 258.375 L 624.410156 266.269531 L 632.300781 258.375 C 632.726562 257.949219 633.425781 257.949219 633.851562 258.375 C 634.058594 258.582031 634.171875 258.855469 634.171875 259.152344 C 634.171875 259.445312 634.058594 259.71875 633.851562 259.925781 L 625.960938 267.824219 L 633.851562 275.71875 C 634.058594 275.921875 634.171875 276.199219 634.171875 276.492188 C 634.171875 276.789062 634.058594 277.0625 633.851562 277.273438 C 633.648438 277.476562 633.371094 277.589844 633.078125 277.59375 C 632.785156 277.59375 632.507812 277.480469 632.300781 277.273438 L 624.410156 269.375 L 616.519531 277.273438 C 616.09375 277.699219 615.394531 277.699219 614.96875 277.273438 C 614.761719 277.066406 614.648438 276.789062 614.648438 276.496094 C 614.648438 276.203125 614.761719 275.925781 614.96875 275.71875 L 622.859375 267.824219 L 614.96875 259.929688 Z M 614.96875 259.925781 " fill-opacity="1" fill-rule="nonzero"/></g><g fill="#000000" fill-opacity="1"><g transform="translate(281.166354, 416.455296)"><g><path d="M 15.859375 -14.953125 C 17.535156 -14.648438 18.941406 -13.828125 20.078125 -12.484375 C 21.222656 -11.140625 21.796875 -9.5625 21.796875 -7.75 C 21.796875 -6.257812 21.441406 -4.929688 20.734375 -3.765625 C 20.035156 -2.597656 18.992188 -1.675781 17.609375 -1 C 16.222656 -0.332031 14.539062 0 12.5625 0 L 3.375 0 L 3.375 -28.921875 L 12.40625 -28.921875 C 15.289062 -28.921875 17.46875 -28.253906 18.9375 -26.921875 C 20.40625 -25.585938 21.140625 -23.863281 21.140625 -21.75 C 21.140625 -19.914062 20.644531 -18.425781 19.65625 -17.28125 C 18.664062 -16.144531 17.398438 -15.367188 15.859375 -14.953125 Z M 5.234375 -15.78125 L 12.484375 -15.78125 C 14.648438 -15.78125 16.316406 -16.296875 17.484375 -17.328125 C 18.648438 -18.359375 19.234375 -19.78125 19.234375 -21.59375 C 19.234375 -23.351562 18.65625 -24.738281 17.5 -25.75 C 16.351562 -26.769531 14.613281 -27.28125 12.28125 -27.28125 L 5.234375 -27.28125 Z M 12.4375 -1.609375 C 14.78125 -1.609375 16.613281 -2.160156 17.9375 -3.265625 C 19.269531 -4.378906 19.9375 -5.914062 19.9375 -7.875 C 19.9375 -9.789062 19.253906 -11.316406 17.890625 -12.453125 C 16.535156 -13.597656 14.675781 -14.171875 12.3125 -14.171875 L 5.234375 -14.171875 L 5.234375 -1.609375 Z M 12.4375 -1.609375 "/></g></g></g><g fill="#000000" fill-opacity="1"><g transform="translate(312.02649, 416.455296)"><g><path d="M 19.78125 -7.421875 L 6.0625 -7.421875 L 3.296875 0 L 1.28125 0 L 11.90625 -28.265625 L 13.96875 -28.265625 L 24.5625 0 L 22.53125 0 Z M 19.203125 -8.984375 L 12.9375 -25.828125 L 6.640625 -8.984375 Z M 19.203125 -8.984375 "/></g></g></g><g fill="#000000" fill-opacity="1"><g transform="translate(344.864205, 416.455296)"><g><path d="M 19 0 L 11.578125 -12.3125 L 5.234375 -12.3125 L 5.234375 0 L 3.375 0 L 3.375 -28.921875 L 11.328125 -28.921875 C 14.546875 -28.921875 16.957031 -28.164062 18.5625 -26.65625 C 20.164062 -25.144531 20.96875 -23.140625 20.96875 -20.640625 C 20.96875 -18.421875 20.34375 -16.585938 19.09375 -15.140625 C 17.84375 -13.703125 16.023438 -12.816406 13.640625 -12.484375 L 21.21875 0 Z M 5.234375 -13.890625 L 11.40625 -13.890625 C 13.96875 -13.890625 15.878906 -14.503906 17.140625 -15.734375 C 18.398438 -16.972656 19.03125 -18.609375 19.03125 -20.640625 C 19.03125 -25.066406 16.460938 -27.28125 11.328125 -27.28125 L 5.234375 -27.28125 Z M 5.234375 -13.890625 "/></g></g></g><g fill="#000000" fill-opacity="1"><g transform="translate(374.982735, 416.455296)"><g><path d="M 24.0625 0 L 22.203125 0 L 5.234375 -25.875 L 5.234375 0 L 3.375 0 L 3.375 -28.890625 L 5.234375 -28.890625 L 22.203125 -3.09375 L 22.203125 -28.890625 L 24.0625 -28.890625 Z M 24.0625 0 "/></g></g></g><g fill="#000000" fill-opacity="1"><g transform="translate(409.468425, 416.455296)"><g><path d="M 19.78125 -7.421875 L 6.0625 -7.421875 L 3.296875 0 L 1.28125 0 L 11.90625 -28.265625 L 13.96875 -28.265625 L 24.5625 0 L 22.53125 0 Z M 19.203125 -8.984375 L 12.9375 -25.828125 L 6.640625 -8.984375 Z M 19.203125 -8.984375 "/></g></g></g><g fill="#000000" fill-opacity="1"><g transform="translate(442.306141, 416.455296)"><g><path d="M 15.859375 -14.953125 C 17.535156 -14.648438 18.941406 -13.828125 20.078125 -12.484375 C 21.222656 -11.140625 21.796875 -9.5625 21.796875 -7.75 C 21.796875 -6.257812 21.441406 -4.929688 20.734375 -3.765625 C 20.035156 -2.597656 18.992188 -1.675781 17.609375 -1 C 16.222656 -0.332031 14.539062 0 12.5625 0 L 3.375 0 L 3.375 -28.921875 L 12.40625 -28.921875 C 15.289062 -28.921875 17.46875 -28.253906 18.9375 -26.921875 C 20.40625 -25.585938 21.140625 -23.863281 21.140625 -21.75 C 21.140625 -19.914062 20.644531 -18.425781 19.65625 -17.28125 C 18.664062 -16.144531 17.398438 -15.367188 15.859375 -14.953125 Z M 5.234375 -15.78125 L 12.484375 -15.78125 C 14.648438 -15.78125 16.316406 -16.296875 17.484375 -17.328125 C 18.648438 -18.359375 19.234375 -19.78125 19.234375 -21.59375 C 19.234375 -23.351562 18.65625 -24.738281 17.5 -25.75 C 16.351562 -26.769531 14.613281 -27.28125 12.28125 -27.28125 L 5.234375 -27.28125 Z M 12.4375 -1.609375 C 14.78125 -1.609375 16.613281 -2.160156 17.9375 -3.265625 C 19.269531 -4.378906 19.9375 -5.914062 19.9375 -7.875 C 19.9375 -9.789062 19.253906 -11.316406 17.890625 -12.453125 C 16.535156 -13.597656 14.675781 -14.171875 12.3125 -14.171875 L 5.234375 -14.171875 L 5.234375 -1.609375 Z M 12.4375 -1.609375 "/></g></g></g><g fill="#000000" fill-opacity="1"><g transform="translate(473.166271, 416.455296)"><g><path d="M 19.78125 -7.421875 L 6.0625 -7.421875 L 3.296875 0 L 1.28125 0 L 11.90625 -28.265625 L 13.96875 -28.265625 L 24.5625 0 L 22.53125 0 Z M 19.203125 -8.984375 L 12.9375 -25.828125 L 6.640625 -8.984375 Z M 19.203125 -8.984375 "/></g></g></g><g fill="#000000" fill-opacity="1"><g transform="translate(506.003978, 416.455296)"><g><path d="M 11.75 0.28125 C 9.875 0.28125 8.234375 -0.046875 6.828125 -0.703125 C 5.429688 -1.359375 4.34375 -2.25 3.5625 -3.375 C 2.78125 -4.5 2.332031 -5.75 2.21875 -7.125 L 4.15625 -7.125 C 4.375 -5.613281 5.082031 -4.265625 6.28125 -3.078125 C 7.476562 -1.898438 9.300781 -1.3125 11.75 -1.3125 C 13.175781 -1.3125 14.414062 -1.570312 15.46875 -2.09375 C 16.53125 -2.625 17.347656 -3.34375 17.921875 -4.25 C 18.492188 -5.15625 18.78125 -6.15625 18.78125 -7.25 C 18.78125 -8.65625 18.441406 -9.769531 17.765625 -10.59375 C 17.097656 -11.414062 16.265625 -12.03125 15.265625 -12.4375 C 14.265625 -12.851562 12.910156 -13.296875 11.203125 -13.765625 C 9.335938 -14.253906 7.832031 -14.742188 6.6875 -15.234375 C 5.550781 -15.734375 4.59375 -16.5 3.8125 -17.53125 C 3.03125 -18.5625 2.640625 -19.96875 2.640625 -21.75 C 2.640625 -23.125 3.003906 -24.378906 3.734375 -25.515625 C 4.460938 -26.660156 5.5 -27.5625 6.84375 -28.21875 C 8.1875 -28.882812 9.738281 -29.21875 11.5 -29.21875 C 14.050781 -29.21875 16.109375 -28.582031 17.671875 -27.3125 C 19.242188 -26.050781 20.179688 -24.5 20.484375 -22.65625 L 18.5 -22.65625 C 18.332031 -23.40625 17.96875 -24.160156 17.40625 -24.921875 C 16.84375 -25.691406 16.046875 -26.332031 15.015625 -26.84375 C 13.984375 -27.351562 12.753906 -27.609375 11.328125 -27.609375 C 9.410156 -27.609375 7.789062 -27.078125 6.46875 -26.015625 C 5.144531 -24.960938 4.484375 -23.554688 4.484375 -21.796875 C 4.484375 -20.390625 4.828125 -19.269531 5.515625 -18.4375 C 6.203125 -17.601562 7.046875 -16.972656 8.046875 -16.546875 C 9.054688 -16.117188 10.410156 -15.6875 12.109375 -15.25 C 14.003906 -14.726562 15.507812 -14.222656 16.625 -13.734375 C 17.738281 -13.253906 18.6875 -12.5 19.46875 -11.46875 C 20.25 -10.445312 20.640625 -9.054688 20.640625 -7.296875 C 20.640625 -6.003906 20.296875 -4.78125 19.609375 -3.625 C 18.921875 -2.46875 17.910156 -1.523438 16.578125 -0.796875 C 15.242188 -0.078125 13.632812 0.28125 11.75 0.28125 Z M 11.75 0.28125 "/></g></g></g></svg>