<svg xmlns="http://www.w3.org/2000/svg" xmlns:xlink="http://www.w3.org/1999/xlink" width="1080" zoomAndPan="magnify" viewBox="0 0 810 809.999993" height="1080" preserveAspectRatio="xMidYMid meet" version="1.0"><defs><g/><clipPath id="510b4d6efa"><path d="M 137.984375 244 L 671.984375 244 L 671.984375 566 L 137.984375 566 Z M 137.984375 244 " clip-rule="nonzero"/></clipPath></defs><g clip-path="url(#510b4d6efa)"><path fill="#000000" d="M 654.464844 261.769531 L 654.464844 260.882812 C 654.464844 251.71875 647.015625 244.265625 637.855469 244.265625 L 154.59375 244.265625 C 145.4375 244.265625 137.984375 251.71875 137.984375 260.882812 L 137.984375 530.667969 C 137.984375 540.351562 145.824219 548.234375 155.484375 548.3125 C 155.5625 557.976562 163.4375 565.820312 173.117188 565.820312 L 654.3125 565.820312 C 664.042969 565.820312 671.957031 557.902344 671.957031 548.167969 L 671.957031 279.414062 C 671.957031 269.730469 664.121094 261.851562 654.464844 261.769531 Z M 670 548.171875 C 670 556.835938 662.976562 563.859375 654.316406 563.859375 L 173.117188 563.859375 C 164.507812 563.859375 157.523438 556.917969 157.441406 548.320312 L 636.820312 548.320312 C 646.550781 548.320312 654.464844 540.402344 654.464844 530.671875 L 654.464844 263.730469 C 663.054688 263.8125 669.996094 270.796875 669.996094 279.414062 L 669.996094 548.167969 Z M 637.855469 246.222656 C 645.945312 246.222656 652.503906 252.789062 652.503906 260.882812 L 652.503906 289.414062 L 139.945312 289.414062 L 139.945312 260.882812 C 139.945312 252.789062 146.503906 246.222656 154.59375 246.222656 Z M 139.945312 291.375 L 652.507812 291.375 L 652.507812 530.671875 C 652.507812 539.335938 645.488281 546.363281 636.824219 546.363281 L 155.625 546.363281 C 146.964844 546.363281 139.945312 539.335938 139.945312 530.671875 Z M 169.789062 281.296875 C 177.214844 281.296875 183.257812 275.25 183.257812 267.820312 C 183.257812 260.390625 177.214844 254.34375 169.789062 254.34375 C 162.363281 254.34375 156.316406 260.390625 156.316406 267.820312 C 156.316406 275.25 162.363281 281.296875 169.789062 281.296875 Z M 158.277344 267.820312 C 158.277344 261.460938 163.429688 256.304688 169.789062 256.304688 C 176.144531 256.304688 181.296875 261.460938 181.296875 267.820312 C 181.296875 274.179688 176.144531 279.335938 169.789062 279.335938 C 163.429688 279.335938 158.277344 274.179688 158.277344 267.820312 Z M 614.96875 259.925781 C 614.761719 259.71875 614.648438 259.441406 614.648438 259.152344 C 614.648438 258.859375 614.761719 258.582031 614.964844 258.375 C 615.398438 257.949219 616.09375 257.949219 616.519531 258.375 L 624.410156 266.269531 L 632.300781 258.375 C 632.726562 257.949219 633.425781 257.949219 633.851562 258.375 C 634.058594 258.582031 634.171875 258.855469 634.171875 259.152344 C 634.171875 259.445312 634.058594 259.71875 633.851562 259.925781 L 625.960938 267.824219 L 633.851562 275.71875 C 634.058594 275.921875 634.171875 276.199219 634.171875 276.492188 C 634.171875 276.789062 634.058594 277.0625 633.851562 277.273438 C 633.648438 277.476562 633.371094 277.589844 633.078125 277.59375 C 632.785156 277.59375 632.507812 277.480469 632.300781 277.273438 L 624.410156 269.375 L 616.519531 277.273438 C 616.09375 277.699219 615.394531 277.699219 614.96875 277.273438 C 614.761719 277.066406 614.648438 276.789062 614.648438 276.496094 C 614.648438 276.203125 614.761719 275.925781 614.96875 275.71875 L 622.859375 267.824219 L 614.96875 259.929688 Z M 614.96875 259.925781 " fill-opacity="1" fill-rule="nonzero"/></g><g fill="#000000" fill-opacity="1"><g transform="translate(309.332976, 416.455296)"><g><path d="M 20.890625 -20.765625 C 20.890625 -18.210938 20.09375 -16.226562 18.5 -14.8125 C 16.90625 -13.394531 14.539062 -12.6875 11.40625 -12.6875 L 5.234375 -12.6875 L 5.234375 0 L 3.375 0 L 3.375 -28.921875 L 11.40625 -28.921875 C 14.59375 -28.921875 16.96875 -28.1875 18.53125 -26.71875 C 20.101562 -25.25 20.890625 -23.265625 20.890625 -20.765625 Z M 11.40625 -14.34375 C 16.488281 -14.34375 19.03125 -16.484375 19.03125 -20.765625 C 19.03125 -22.878906 18.425781 -24.492188 17.21875 -25.609375 C 16.007812 -26.722656 14.070312 -27.28125 11.40625 -27.28125 L 5.234375 -27.28125 L 5.234375 -14.34375 Z M 11.40625 -14.34375 "/></g></g></g><g fill="#000000" fill-opacity="1"><g transform="translate(338.833512, 416.455296)"><g><path d="M 19 0 L 11.578125 -12.3125 L 5.234375 -12.3125 L 5.234375 0 L 3.375 0 L 3.375 -28.921875 L 11.328125 -28.921875 C 14.546875 -28.921875 16.957031 -28.164062 18.5625 -26.65625 C 20.164062 -25.144531 20.96875 -23.140625 20.96875 -20.640625 C 20.96875 -18.421875 20.34375 -16.585938 19.09375 -15.140625 C 17.84375 -13.703125 16.023438 -12.816406 13.640625 -12.484375 L 21.21875 0 Z M 5.234375 -13.890625 L 11.40625 -13.890625 C 13.96875 -13.890625 15.878906 -14.503906 17.140625 -15.734375 C 18.398438 -16.972656 19.03125 -18.609375 19.03125 -20.640625 C 19.03125 -25.066406 16.460938 -27.28125 11.328125 -27.28125 L 5.234375 -27.28125 Z M 5.234375 -13.890625 "/></g></g></g><g fill="#000000" fill-opacity="1"><g transform="translate(368.952045, 416.455296)"><g><path d="M 19.78125 -7.421875 L 6.0625 -7.421875 L 3.296875 0 L 1.28125 0 L 11.90625 -28.265625 L 13.96875 -28.265625 L 24.5625 0 L 22.53125 0 Z M 19.203125 -8.984375 L 12.9375 -25.828125 L 6.640625 -8.984375 Z M 19.203125 -8.984375 "/></g></g></g><g fill="#000000" fill-opacity="1"><g transform="translate(401.789757, 416.455296)"><g><path d="M 19.359375 -28.921875 L 19.359375 -27.359375 L 11.125 -27.359375 L 11.125 0 L 9.265625 0 L 9.265625 -27.359375 L 1.03125 -27.359375 L 1.03125 -28.921875 Z M 19.359375 -28.921875 "/></g></g></g><g fill="#000000" fill-opacity="1"><g transform="translate(429.189129, 416.455296)"><g><path d="M 19.359375 -28.921875 L 19.359375 -27.359375 L 11.125 -27.359375 L 11.125 0 L 9.265625 0 L 9.265625 -27.359375 L 1.03125 -27.359375 L 1.03125 -28.921875 Z M 19.359375 -28.921875 "/></g></g></g><g fill="#000000" fill-opacity="1"><g transform="translate(456.588502, 416.455296)"><g><path d="M 5.234375 -1.5625 L 15.984375 -1.5625 L 15.984375 0 L 3.375 0 L 3.375 -28.921875 L 5.234375 -28.921875 Z M 5.234375 -1.5625 "/></g></g></g><g fill="#000000" fill-opacity="1"><g transform="translate(480.40351, 416.455296)"><g><path d="M 5.234375 -27.359375 L 5.234375 -15.28125 L 16.765625 -15.28125 L 16.765625 -13.71875 L 5.234375 -13.71875 L 5.234375 -1.5625 L 18 -1.5625 L 18 0 L 3.375 0 L 3.375 -28.921875 L 18 -28.921875 L 18 -27.359375 Z M 5.234375 -27.359375 "/></g></g></g></svg>