<svg id="Layer_1" data-name="Layer 1" xmlns="http://www.w3.org/2000/svg" viewBox="0 0 438.21 38.95"><defs><style>.cls-1{fill:#0f0f0f;}</style></defs><path class="cls-1" d="M35.93,56.52c11.69,0,19.48-8.73,19.48-19.47S47.62,17.57,35.93,17.57,16.45,26.3,16.45,37.05,24.25,56.52,35.93,56.52ZM19.19,37.05c0-10.53,6.74-19,16.74-19s16.67,8.5,16.67,19-6.71,19-16.67,19S19.19,47.61,19.19,37.05Z" transform="translate(-16.45 -17.57)"/><path class="cls-1" d="M64.81,18.32v.45h1.72c.71,0,1.91.34,1.91,2.4V52.93c0,2.06-1.2,2.39-1.91,2.39H64.81v.45H85.74c.94,0,1.16.3,1.05.75h.49L89.82,41.8h-.41c-.56,2.62-1.91,13.52-10.94,13.52h-7.3V21.17c0-2.06,1.2-2.4,1.91-2.4h1.73v-.45Z" transform="translate(-16.45 -17.57)"/><path class="cls-1" d="M97.35,55.77h10v-.45h-1.72c-.72,0-1.91-.33-1.91-2.39V21.17c0-2.06,1.19-2.4,1.91-2.4h1.72v-.45h-10v.45h1.72c.71,0,1.91.34,1.91,2.4V52.93c0,2.06-1.2,2.39-1.91,2.39H97.35Z" transform="translate(-16.45 -17.57)"/><path class="cls-1" d="M115.63,18.77h1.53c2.25,0,3.41,2.14,4.16,3.6.67,1.31,10.26,29.25,12,34.15h.45c1.73-4.9,11.31-32.84,12-34.15.75-1.46,1.91-3.6,4.15-3.6h1.54v-.45H139.11v.45h1.94a2.71,2.71,0,0,1,3,2.85c0,3.22-2.73,11.42-5.32,18.8-1.61,4.64-3.18,8.95-4,11.38l.14.45s-11.08-30.67-11.08-32.5c0-1,.75-1,1.42-1h2v-.45H115.63Z" transform="translate(-16.45 -17.57)"/><path class="cls-1" d="M159.71,55.77h10v-.45H168c-.71,0-1.91-.33-1.91-2.39V21.17c0-2.06,1.2-2.4,1.91-2.4h1.73v-.45h-10v.45h1.71c.72,0,1.92.34,1.92,2.4V52.93c0,2.06-1.2,2.39-1.92,2.39h-1.71Z" transform="translate(-16.45 -17.57)"/><path class="cls-1" d="M178,55.32v.45h10.75v-.41H187a2.53,2.53,0,0,1-2.58-2.85,30.45,30.45,0,0,1,1-6.1H200a77.77,77.77,0,0,1,2.14,8c0,1-.68,1-1.24,1h-1.72v.41h10v-.45h-1.35c-2,0-3-2.13-3.64-3.59-.6-1.31-8.87-29.25-10.37-34.16h-.45c-1.5,4.91-9.89,32.85-10.45,34.16-.64,1.46-1.69,3.59-3.63,3.59ZM189.1,33.68c1.43-4.65,2.77-8.95,3.49-11.39l-.16-.45S197,36.3,199.85,46H185.58C186.48,42.29,187.79,37.84,189.1,33.68Z" transform="translate(-16.45 -17.57)"/><path class="cls-1" d="M257.53,18c5.72,0,11.6,2.65,9.36,9.69l-7.53,21h.49l11.2-31.12h-.38a3.57,3.57,0,0,1-3,1.58c-3.26,0-5.88-1.58-10.9-1.58-12.09,0-19,8.73-19,19.48s6.93,19.47,19,19.47,19-8.73,19-19.47h-.45c0,10.86-7.34,19-17.9,19C235.2,56,234.72,18,257.53,18Z" transform="translate(-16.45 -17.57)"/><path class="cls-1" d="M284.12,55.32v.45h10v-.45h-1.73c-.71,0-1.91-.33-1.91-2.39V32.06h16.25V52.93c0,2.06-1.19,2.39-1.91,2.39H303.1v.45h10v-.45h-1.72c-.71,0-1.91-.33-1.91-2.39V21.17c0-2.06,1.2-2.4,1.91-2.4h1.72v-.45h-10v.45h1.72c.72,0,1.91.34,1.91,2.4V31.58H290.48V21.17c0-2.06,1.2-2.4,1.91-2.4h1.73v-.45h-10v.45h1.71c.72,0,1.92.34,1.92,2.4V52.93c0,2.06-1.2,2.39-1.92,2.39Z" transform="translate(-16.45 -17.57)"/><path class="cls-1" d="M342,56.52c11.68,0,19.47-8.73,19.47-19.47S353.66,17.57,342,17.57,322.5,26.3,322.5,37.05,330.29,56.52,342,56.52ZM325.23,37.05c0-10.53,6.75-19,16.75-19s16.66,8.5,16.66,19-6.7,19-16.66,19S325.23,47.61,325.23,37.05Z" transform="translate(-16.45 -17.57)"/><path class="cls-1" d="M370.85,55.32v.45h12.77v-.41H382c-3,0-3.59-2.13-3.59-4.91,0-5.39,1.87-18.34,3.74-29.62.11.34.19.68.3,1,4.57,13.67,6.06,22,9.55,34.68h.45c3.26-11.64,6.4-23.86,9.59-35.76,1.79,11.08,4.79,27.34,4.79,30.86,0,2.2-1.61,3.74-4.61,3.74h-1.64v.41h14.6v-.45h-1.76c-3.89,0-5-9-6.44-18.27-1.05-6.93-2.73-15.47-2.73-17.38,0-.64.3-.9,1-.9h3.48v-.45h-6.55l-.12.45c-3.4,13.71-5.35,20-8.65,32.66-3.56-12.89-5.24-18.91-9-32.66,0-.15-.08-.3-.11-.45h-7v.45h2.88c.79,0,1.58.38,1.58,1.05,0,2.47-1.65,10.41-2.7,17.23-1.42,9.25-2.55,18.27-6.44,18.27Z" transform="translate(-16.45 -17.57)"/><path class="cls-1" d="M423.43,55.32v.45h10.74v-.41h-1.68a2.53,2.53,0,0,1-2.58-2.85,29.74,29.74,0,0,1,1-6.1h14.53a80.82,80.82,0,0,1,2.14,8c0,1-.68,1-1.24,1h-1.72v.41h10v-.45h-1.35c-1.94,0-2.95-2.13-3.63-3.59-.6-1.31-8.88-29.25-10.37-34.16h-.45c-1.5,4.91-9.89,32.85-10.45,34.16-.64,1.46-1.69,3.59-3.63,3.59Zm11.12-21.64C436,29,437.32,24.73,438,22.29l-.15-.45S442.46,36.3,445.3,46H431C431.93,42.29,433.24,37.84,434.55,33.68Z" transform="translate(-16.45 -17.57)"/></svg>